<?xml version="1.0" standalone="no"?>
<!DOCTYPE svg PUBLIC "-//W3C//DTD SVG 20010904//EN"
 "http://www.w3.org/TR/2001/REC-SVG-20010904/DTD/svg10.dtd">
<svg version="1.0" xmlns="http://www.w3.org/2000/svg"
 width="438.000000pt" height="438.000000pt" viewBox="0 0 438.000000 438.000000"
 preserveAspectRatio="xMidYMid meet">
<metadata>
Created by potrace 1.11, written by Peter Selinger 2001-2013
</metadata>
<g transform="translate(0.000000,438.000000) scale(0.100000,-0.100000)"
fill="#000000" stroke="none">
<path d="M838 3935 c-2 -1 -52 -5 -113 -9 -60 -4 -130 -9 -155 -11 -96 -9
-156 -16 -180 -19 -14 -2 -46 -7 -71 -11 l-47 -6 4 -127 c3 -130 5 -720 2
-827 -7 -225 99 -470 241 -559 50 -31 164 -58 258 -59 84 -2 223 10 232 19 3
3 7 86 9 185 l4 179 -44 1 c-212 5 -227 7 -257 43 -13 15 -13 40 -8 550 l2
209 30 6 c44 8 520 7 595 -1 173 -18 328 -68 382 -122 53 -53 105 -191 122
-326 21 -162 27 -552 13 -865 -17 -373 -21 -469 -21 -605 0 -169 8 -262 34
-380 54 -253 155 -427 330 -573 96 -80 304 -163 460 -183 65 -9 238 -9 246 -1
8 7 11 427 4 428 -3 0 -12 2 -20 4 -40 10 -152 27 -270 41 -95 11 -142 40
-195 124 -46 73 -103 249 -120 370 -3 25 -8 56 -10 70 -2 14 -7 50 -10 80 -3
30 -8 66 -10 80 -18 120 -24 680 -9 1010 12 282 10 583 -5 655 -43 213 -118
332 -271 431 -103 66 -253 123 -400 150 -47 9 -92 17 -100 19 -8 2 -44 6 -80
10 -36 3 -78 9 -95 12 -29 5 -472 12 -477 8z"/>
<path d="M1375 2879 c-147 -33 -204 -226 -101 -338 128 -138 359 -54 358 132
0 143 -118 237 -257 206z"/>
<path d="M3427 2144 c-1 -1 -20 -5 -42 -8 -99 -15 -223 -74 -300 -143 -67 -59
-156 -203 -170 -273 -2 -11 -7 -24 -10 -30 -3 -5 -8 -47 -11 -92 -18 -284 168
-540 446 -612 55 -14 215 -15 273 -2 304 71 503 382 440 690 -48 235 -251 431
-479 462 -46 6 -143 11 -147 8z"/>
</g>
</svg>
