<?xml version="1.0" standalone="no"?>
<!DOCTYPE svg PUBLIC "-//W3C//DTD SVG 20010904//EN"
 "http://www.w3.org/TR/2001/REC-SVG-20010904/DTD/svg10.dtd">
<svg version="1.0" xmlns="http://www.w3.org/2000/svg"
 width="1472.000000pt" height="1472.000000pt" viewBox="0 0 1472.000000 1472.000000"
 preserveAspectRatio="xMidYMid meet">
<metadata>
Created by potrace 1.11, written by Peter Selinger 2001-2013
</metadata>
<g transform="translate(0.000000,1472.000000) scale(0.100000,-0.100000)"
fill="#000000" stroke="none">
<path d="M6699 13256 c-2 -2 -53 -7 -114 -10 -60 -4 -126 -8 -145 -11 -19 -2
-62 -6 -95 -9 -456 -44 -1086 -201 -1490 -371 -16 -7 -50 -20 -75 -30 -212
-86 -440 -198 -675 -334 -44 -25 -88 -50 -98 -56 -103 -58 -431 -284 -552
-380 -63 -50 -220 -178 -225 -184 -3 -3 -43 -40 -90 -81 -167 -147 -470 -461
-596 -619 -10 -13 -31 -38 -45 -55 -246 -296 -580 -833 -733 -1176 -16 -36
-42 -94 -59 -130 -16 -36 -35 -82 -43 -103 -7 -20 -20 -52 -28 -70 -54 -116
-184 -518 -236 -727 -46 -188 -97 -452 -116 -600 -4 -30 -8 -64 -9 -75 -2 -11
-6 -49 -10 -85 -3 -36 -8 -76 -10 -90 -14 -89 -20 -267 -20 -552 0 -415 -9
-400 185 -306 122 60 310 148 315 148 1 0 47 21 101 47 55 25 104 46 109 46
11 0 170 -57 504 -180 145 -53 179 -63 198 -54 13 6 23 14 23 18 0 5 2 145 4
313 2 168 6 321 9 340 3 19 8 62 12 95 6 63 32 242 40 285 3 14 8 41 11 60 4
19 9 44 11 55 2 11 6 31 9 45 25 128 127 476 165 565 4 11 22 58 40 104 17 45
37 95 45 110 8 14 14 30 14 34 0 13 178 366 200 397 11 16 20 31 20 34 0 10
160 259 223 346 502 696 1179 1220 1970 1524 292 112 643 204 917 240 25 3 55
8 67 10 12 3 54 8 95 11 40 4 109 11 153 15 77 8 594 5 645 -4 14 -2 57 -7 95
-10 39 -4 77 -9 85 -11 8 -2 38 -6 65 -9 73 -9 163 -25 315 -58 74 -16 143
-31 153 -33 28 -6 184 -54 292 -89 509 -169 1038 -471 1448 -829 106 -92 347
-333 427 -426 30 -35 60 -69 65 -75 109 -123 305 -403 420 -601 69 -119 225
-429 225 -448 0 -7 4 -17 9 -22 30 -34 166 -432 217 -635 37 -149 89 -424 99
-530 3 -25 7 -69 10 -97 3 -29 8 -79 12 -110 3 -32 7 -181 7 -331 1 -291 2
-293 50 -287 19 2 106 33 557 199 l117 43 163 -74 c90 -41 234 -108 319 -150
85 -41 165 -75 178 -75 50 -1 52 12 54 347 2 282 -11 498 -43 740 -6 44 -12
91 -14 105 -9 67 -36 230 -45 270 -5 25 -12 56 -14 70 -26 155 -136 548 -213
760 -43 119 -86 231 -116 300 -152 352 -247 530 -480 904 -70 112 -303 430
-393 536 -294 345 -603 644 -904 875 -36 27 -69 53 -75 58 -73 59 -315 223
-475 320 -398 241 -810 427 -1270 572 -126 40 -397 110 -520 134 -30 6 -66 14
-80 16 -14 3 -81 15 -150 26 -69 11 -137 22 -153 25 -15 2 -49 7 -75 9 -26 3
-62 7 -80 9 -18 3 -67 8 -110 12 -42 4 -90 9 -107 11 -39 5 -681 14 -686 9z"/>
<path d="M6778 11575 c-1 -1 -48 -5 -103 -9 -55 -3 -111 -8 -125 -10 -14 -3
-52 -8 -85 -11 -81 -9 -199 -28 -318 -51 -66 -12 -351 -89 -442 -119 -794
-262 -1498 -773 -2000 -1450 -262 -354 -471 -761 -604 -1176 -43 -134 -83
-282 -100 -369 -6 -30 -14 -66 -16 -80 -6 -28 -34 -191 -40 -230 -8 -50 -19
-165 -31 -300 -8 -102 -8 -438 0 -532 3 -38 8 -98 11 -135 3 -38 7 -79 10 -93
2 -14 7 -45 10 -70 3 -25 13 -85 21 -135 9 -49 18 -102 20 -116 3 -15 21 -89
40 -165 19 -77 37 -147 39 -157 2 -10 27 -85 54 -165 289 -854 838 -1574 1591
-2084 69 -47 130 -87 135 -89 6 -2 54 -30 109 -63 206 -123 535 -268 771 -341
66 -20 129 -41 140 -45 17 -7 75 -22 135 -35 8 -2 38 -9 65 -15 68 -16 95 -21
215 -44 74 -13 131 -21 305 -41 210 -23 599 -24 800 0 147 17 147 17 255 35
225 36 452 93 690 175 58 20 114 40 125 45 11 5 70 30 130 55 290 124 564 282
835 483 63 47 117 88 120 91 3 4 19 17 35 30 90 69 312 281 420 401 32 36 72
81 90 100 17 19 74 91 126 160 408 534 660 1106 783 1775 3 17 8 50 12 75 3
25 7 52 9 60 3 8 7 42 10 75 4 33 8 76 11 95 22 168 21 681 -1 816 -2 16 -7
49 -9 74 -9 83 -30 214 -46 290 -5 25 -12 56 -14 70 -2 14 -10 48 -16 75 -6
28 -13 59 -16 70 -2 11 -20 74 -40 140 -19 66 -39 134 -44 150 -16 55 -87 239
-139 357 -90 207 -229 459 -337 616 -24 35 -44 65 -44 67 0 4 -100 138 -169
225 -113 144 -400 441 -521 540 -30 25 -57 47 -60 51 -24 30 -373 283 -430
312 -8 4 -27 15 -42 25 -206 134 -562 299 -853 396 -113 38 -381 110 -447 120
-21 3 -57 10 -80 15 -24 5 -63 12 -88 16 -25 3 -57 8 -72 11 -16 2 -40 6 -55
8 -16 3 -59 8 -98 11 -38 4 -83 9 -100 11 -35 6 -532 14 -537 9z m562 -69 c25
-3 63 -8 85 -10 22 -3 63 -8 90 -11 28 -4 102 -15 165 -27 63 -11 126 -22 140
-24 14 -3 84 -20 157 -39 545 -143 1060 -397 1483 -732 328 -259 642 -600 863
-935 139 -211 297 -502 354 -651 8 -23 22 -57 30 -75 109 -246 227 -702 259
-1002 4 -36 8 -76 10 -90 10 -62 18 -250 18 -410 0 -244 -12 -414 -45 -614
-28 -170 -28 -175 -54 -281 -9 -38 -19 -81 -21 -95 -6 -29 -8 -36 -72 -240
-113 -357 -258 -658 -476 -990 -460 -700 -1148 -1246 -1946 -1544 -95 -36
-228 -80 -275 -92 -5 -2 -44 -12 -85 -24 -41 -11 -129 -32 -195 -46 -66 -14
-127 -27 -136 -29 -9 -2 -40 -6 -70 -10 -30 -4 -56 -8 -59 -10 -3 -1 -36 -6
-73 -10 -37 -3 -78 -8 -90 -11 -115 -22 -762 -21 -830 1 -7 2 -37 6 -67 9
-494 46 -1112 256 -1579 538 -192 116 -451 303 -566 409 -16 16 -41 38 -55 49
-93 79 -302 297 -422 440 -214 256 -455 647 -578 940 -53 127 -76 188 -110
285 -45 126 -86 263 -106 350 -29 124 -63 292 -70 340 -3 28 -8 59 -10 70 -38
194 -50 761 -20 980 3 17 8 55 11 85 10 84 13 104 24 167 6 32 13 74 16 93 32
189 148 583 220 745 7 17 25 59 40 95 42 101 173 363 201 400 6 8 22 35 35 60
58 108 277 418 375 530 103 118 298 319 397 408 96 88 307 251 438 339 210
141 342 213 664 363 136 63 447 165 645 211 117 28 121 29 155 34 17 3 66 12
110 20 44 8 107 17 140 21 33 3 69 8 80 10 11 2 63 7 115 10 52 4 97 8 99 10
5 4 539 -4 591 -10z"/>
<path d="M7727 10529 c-43 -25 -73 -128 -82 -284 -6 -111 -32 -257 -49 -280
-7 -10 -51 -22 -126 -34 -503 -82 -811 -301 -948 -676 -35 -97 -111 -419 -137
-585 -3 -19 -7 -46 -10 -60 -15 -84 -42 -324 -50 -435 -12 -184 -14 -226 -17
-352 -2 -118 0 -134 17 -154 24 -26 44 -37 80 -43 33 -6 101 21 128 51 24 28
56 181 73 358 2 22 6 117 8 210 3 94 8 188 11 210 9 62 17 119 20 135 2 8 6
35 9 60 12 85 79 317 136 467 58 154 163 277 308 362 125 72 249 106 433 116
52 3 111 10 131 16 20 5 74 11 120 14 46 2 105 8 133 14 27 5 88 9 136 9 297
0 597 -153 728 -372 77 -129 148 -393 207 -771 2 -16 9 -55 15 -85 16 -86 19
-109 24 -205 8 -166 16 -209 61 -347 29 -89 54 -125 100 -144 47 -20 78 -3
109 60 46 95 54 138 50 279 -4 139 -8 178 -30 267 -8 30 -16 73 -19 95 -13
102 -26 193 -31 230 -11 71 -47 270 -50 275 -2 3 -6 25 -10 49 -20 137 -107
351 -189 465 -175 245 -464 401 -841 455 -133 19 -185 55 -185 128 0 15 -7 53
-15 83 -9 30 -17 83 -20 117 -5 73 -20 113 -81 210 -61 98 -97 121 -147 92z"/>
<path d="M5464 10348 c-68 -18 -74 -71 -18 -146 20 -26 44 -58 54 -72 11 -14
63 -83 116 -155 86 -114 204 -298 289 -451 131 -234 146 -277 146 -430 0 -83
-4 -115 -26 -180 -32 -94 -104 -188 -197 -257 -33 -25 -38 -26 -39 -10 -1 10
-3 27 -4 38 -2 11 -6 45 -9 75 -4 30 -9 62 -11 70 -2 8 -7 29 -10 47 -13 80
-50 219 -90 339 -149 446 -322 728 -533 867 -54 35 -68 40 -127 40 -55 0 -67
-4 -90 -28 -14 -13 -25 -36 -25 -50 0 -39 36 -139 91 -251 27 -55 49 -103 49
-107 0 -4 20 -33 44 -64 181 -239 306 -565 342 -888 3 -33 8 -69 11 -80 5 -25
4 -399 -1 -440 -2 -16 -7 -61 -11 -100 -13 -137 -36 -266 -81 -470 -20 -88
-65 -347 -78 -452 -18 -132 -25 -191 -31 -253 -13 -126 -16 -157 -20 -202 -31
-339 -35 -876 -9 -1283 9 -144 23 -286 35 -360 36 -218 145 -498 211 -548 33
-25 103 -27 126 -4 14 15 17 36 15 140 -1 138 -13 526 -17 602 -8 110 -18 252
-21 285 -2 19 -6 69 -10 110 -4 41 -8 89 -10 105 -3 17 -7 55 -10 85 -3 30 -8
66 -10 78 -26 154 -26 688 -1 927 9 83 18 162 21 175 6 34 16 97 20 125 2 17
18 98 35 180 18 83 36 174 41 204 5 29 14 61 18 70 10 17 40 127 47 171 3 14
7 33 10 42 3 9 6 25 8 35 2 10 9 36 14 58 6 22 13 51 16 65 2 14 11 55 20 91
8 37 18 80 20 95 3 16 8 40 11 54 4 17 38 49 106 100 55 41 123 102 152 135
28 33 69 76 92 95 130 113 166 168 190 288 12 62 12 226 1 292 -4 19 -16 89
-27 155 -47 266 -135 482 -281 685 -143 199 -266 304 -408 346 -66 19 -107 23
-146 12z"/>
<path d="M4443 9646 c-32 -28 -38 -85 -16 -160 13 -42 32 -67 132 -165 111
-111 316 -344 338 -386 6 -11 13 -33 16 -50 3 -16 10 -52 15 -80 24 -120 1
-313 -50 -422 -12 -27 -52 -93 -89 -148 -36 -55 -85 -134 -108 -175 -81 -144
-212 -422 -213 -450 -1 -41 18 -60 61 -60 43 0 131 51 131 76 0 8 17 32 38 53
74 74 164 176 205 232 23 32 80 111 127 175 47 65 104 140 127 166 58 66 78
134 77 268 -1 198 -95 478 -226 674 -41 61 -118 158 -149 186 -8 8 -32 40 -51
70 -72 112 -189 190 -321 215 -9 2 -29 -6 -44 -19z"/>
<path d="M8150 9505 c-30 -8 -77 -17 -105 -20 -109 -14 -262 -47 -302 -66 -44
-21 -99 -76 -113 -115 -21 -54 -15 -99 21 -180 10 -23 21 -74 25 -115 9 -107
10 -329 2 -342 -5 -8 -129 -11 -440 -12 -419 -1 -435 -2 -480 -23 -56 -25 -62
-49 -24 -101 65 -88 200 -125 356 -98 25 4 107 10 184 13 76 2 142 6 146 9 14
9 260 17 261 9 0 -5 2 -124 4 -264 2 -140 6 -275 9 -300 4 -25 9 -63 12 -85 9
-65 33 -138 54 -163 17 -21 25 -23 60 -17 22 4 47 13 54 20 28 29 48 267 50
593 1 215 1 222 21 222 11 1 162 2 335 4 367 3 427 12 480 73 50 56 37 98 -31
107 -187 23 -496 34 -614 22 -22 -3 -75 -8 -118 -11 l-77 -7 10 26 c5 15 7 87
4 174 -13 370 -13 373 36 390 16 6 55 8 87 5 245 -24 382 7 383 85 1 61 -75
144 -154 167 -58 18 -64 18 -136 0z"/>
<path d="M7022 9164 c-31 -13 -40 -28 -43 -79 -3 -51 11 -89 41 -110 203 -143
324 -217 354 -218 38 -1 66 17 66 42 0 9 7 25 15 35 32 42 10 90 -68 151 -28
22 -86 72 -128 111 -69 64 -83 73 -126 77 -62 7 -76 6 -111 -9z"/>
<path d="M8505 9161 c-42 -12 -105 -52 -180 -113 -42 -35 -96 -78 -119 -96
-83 -67 -79 -125 10 -152 36 -11 49 -9 126 18 154 55 313 144 342 193 27 45 7
89 -58 128 -34 21 -90 31 -121 22z"/>
<path d="M7234 8350 c-49 -15 -129 -105 -174 -194 -8 -17 -50 -67 -92 -113
-82 -89 -96 -121 -84 -188 9 -49 55 -78 111 -71 33 4 47 13 80 53 63 75 123
132 222 211 185 147 208 211 98 273 -57 32 -116 42 -161 29z"/>
<path d="M8226 8319 c-50 -40 -34 -84 78 -208 36 -40 66 -77 66 -82 0 -5 7 -9
16 -9 27 0 145 -85 201 -143 62 -66 83 -66 136 -2 63 75 60 85 -48 195 -51 52
-106 110 -120 128 -37 44 -97 84 -177 116 -80 31 -117 33 -152 5z"/>
<path d="M8200 7724 c-92 -25 -129 -85 -84 -136 45 -51 219 -100 399 -113 116
-8 142 -12 245 -36 129 -29 248 -68 314 -100 142 -72 219 -199 174 -287 -10
-20 -18 -42 -18 -49 0 -20 -8 -16 -74 36 -86 69 -194 102 -607 185 -241 49
-272 52 -316 35 -15 -6 -41 -13 -58 -16 -30 -4 -55 -27 -55 -47 2 -55 187
-146 330 -161 158 -18 226 -29 301 -51 69 -21 148 -58 180 -86 34 -30 49 -59
55 -111 5 -39 4 -43 -24 -53 -20 -8 -82 -10 -174 -8 -131 4 -190 11 -333 44
-93 21 -268 10 -298 -19 -23 -22 -14 -64 16 -84 46 -30 244 -87 406 -117 144
-27 159 -29 256 -36 44 -4 81 -7 82 -8 1 -1 -9 -44 -22 -96 -13 -52 -26 -115
-30 -140 -3 -25 -9 -58 -12 -75 -17 -96 -6 -423 20 -555 48 -245 145 -568 255
-855 107 -280 104 -272 142 -293 19 -10 42 -18 50 -17 8 1 22 3 31 3 8 1 25
12 38 23 20 19 22 27 16 73 -6 45 -25 166 -40 251 -14 73 -70 292 -112 430
-111 371 -107 358 -138 560 -13 87 -13 335 -1 400 38 190 96 339 144 367 48
28 150 145 181 206 16 32 46 102 67 157 81 213 40 327 -176 486 -168 125 -281
182 -458 233 -217 62 -552 92 -672 60z"/>
<path d="M7378 7715 c-2 -1 -52 -5 -113 -9 -60 -3 -121 -8 -135 -10 -14 -3
-41 -7 -60 -10 -33 -5 -44 -7 -115 -22 -224 -45 -504 -168 -614 -270 -87 -80
-112 -130 -106 -209 11 -151 27 -221 64 -291 29 -55 34 -60 141 -146 52 -42
130 -112 173 -157 43 -45 86 -81 96 -81 21 0 44 -23 48 -49 19 -104 25 -516
10 -666 -8 -86 -35 -270 -42 -295 -4 -15 -15 -69 -20 -105 -11 -71 -83 -332
-126 -455 -83 -240 -86 -410 -9 -435 29 -9 77 25 124 89 86 117 223 443 261
626 2 8 12 53 23 100 20 82 24 107 37 195 3 22 8 51 10 65 2 14 7 52 10 85 4
33 8 71 10 85 9 63 18 272 19 452 1 108 3 199 6 201 3 3 28 7 56 11 28 3 69
13 90 22 21 9 59 22 84 29 177 49 241 65 280 70 95 11 192 55 243 109 22 23
27 37 25 65 -3 31 -9 39 -42 55 -37 18 -43 18 -180 2 -78 -9 -150 -18 -161
-20 -11 -2 -83 -14 -160 -26 -77 -13 -143 -28 -146 -33 -13 -19 -96 -11 -134
13 -20 13 -50 23 -67 22 -28 -1 -29 1 -22 31 10 46 40 102 74 137 59 61 282
146 460 175 159 26 210 53 210 109 0 17 -9 42 -19 55 -16 21 -27 25 -77 24
-73 0 -244 -10 -304 -18 -56 -7 -206 -49 -280 -77 -62 -24 -247 -114 -300
-147 -44 -26 -66 -27 -80 -1 -6 11 -17 20 -24 20 -19 0 -25 19 -22 81 3 90 28
126 126 185 107 64 232 117 335 143 109 27 128 29 345 46 97 8 193 32 218 55
41 39 3 138 -62 160 -29 9 -151 21 -158 15z"/>
<path d="M5945 7516 c-17 -7 -36 -20 -42 -28 -14 -17 -60 -200 -69 -273 -3
-27 -7 -52 -9 -55 -2 -4 -7 -45 -11 -91 -3 -46 -8 -87 -10 -91 -23 -37 -22
-829 0 -983 3 -16 7 -52 10 -80 10 -93 17 -140 27 -190 5 -27 12 -66 15 -85
22 -145 105 -422 186 -617 52 -128 88 -175 145 -189 33 -9 86 18 104 53 24 44
9 160 -32 248 -45 97 -141 460 -173 655 -3 19 -8 44 -10 55 -2 11 -9 54 -15
95 -6 41 -14 98 -18 125 -15 94 -6 703 12 830 10 72 16 123 21 165 3 25 7 56
10 70 2 14 7 98 10 187 8 198 3 213 -74 213 -26 -1 -61 -7 -77 -14z"/>
<path d="M4871 7253 c-23 -25 -43 -56 -46 -67 -4 -21 -22 -112 -29 -151 -2
-11 -7 -40 -11 -65 -4 -25 -9 -54 -11 -65 -2 -11 -13 -78 -24 -150 -28 -180
-30 -195 -35 -240 -3 -22 -8 -57 -11 -78 -3 -21 -7 -55 -9 -75 -2 -20 -6 -62
-10 -92 -9 -64 -10 -79 -20 -185 -4 -44 -10 -89 -12 -100 -3 -11 -6 -65 -8
-120 -2 -100 -12 -227 -20 -255 -2 -8 -7 -51 -11 -95 -3 -44 -8 -89 -10 -100
-2 -10 -6 -62 -10 -115 -3 -52 -7 -106 -10 -120 -6 -38 -5 -269 1 -324 11 -88
42 -126 103 -126 35 0 57 22 77 80 27 77 75 307 91 440 2 19 6 49 8 65 3 17 8
66 11 110 4 44 8 92 11 107 2 14 6 93 9 175 6 202 15 390 20 438 7 68 14 147
20 220 3 39 8 81 10 95 3 14 7 50 10 80 3 30 8 66 10 80 2 14 7 50 10 80 4 30
9 64 11 75 2 11 7 45 10 75 3 30 7 57 9 60 2 3 6 30 10 60 4 30 9 59 12 63 9
14 3 158 -7 198 -12 44 -42 69 -81 69 -20 0 -39 -13 -68 -47z"/>
<path d="M2752 7085 c-190 -71 -314 -169 -425 -337 -57 -86 -167 -293 -167
-315 0 -7 -4 -13 -8 -13 -5 0 -20 62 -35 138 -38 200 -46 254 -60 382 l-13
115 -55 -3 c-88 -4 -85 3 -64 -157 2 -16 6 -50 9 -75 3 -25 17 -108 31 -185
33 -185 35 -197 41 -207 3 -4 1 -8 -5 -8 -6 0 -16 10 -22 23 -7 12 -15 24 -18
27 -4 3 -26 30 -51 60 -158 194 -305 286 -510 320 -41 6 -100 17 -130 23 -76
15 -81 14 -94 -6 -9 -14 -2 -36 39 -114 68 -131 153 -249 241 -333 100 -94
219 -153 379 -186 54 -11 86 -15 148 -18 38 -2 70 -6 71 -8 2 -1 17 -51 35
-109 43 -149 62 -206 116 -353 25 -70 45 -130 43 -132 -8 -8 -67 31 -172 115
-61 49 -133 103 -161 120 -87 55 -214 86 -350 84 -83 0 -202 -22 -208 -37 -3
-7 8 -41 25 -75 39 -82 193 -238 297 -301 152 -91 249 -116 420 -107 106 6
125 8 191 21 l36 7 96 -193 c54 -106 119 -230 146 -275 l49 -82 -56 26 c-273
122 -462 174 -620 168 -109 -4 -155 -12 -208 -35 -65 -29 -60 -57 23 -134 142
-131 274 -215 389 -247 55 -16 276 -19 361 -6 28 4 89 18 135 30 l84 22 103
-145 c57 -80 129 -176 160 -215 92 -112 91 -109 45 -90 -43 19 -262 92 -296
99 -12 3 -56 12 -97 21 -163 37 -343 20 -484 -44 -59 -26 -66 -33 -66 -58 0
-43 23 -68 115 -122 159 -95 340 -168 456 -186 150 -24 339 17 490 106 l47 27
73 -79 74 -79 45 36 c25 19 47 40 48 45 2 5 -26 40 -62 77 -36 38 -66 71 -66
75 0 3 17 23 39 44 77 76 164 238 201 378 36 140 19 402 -37 559 -17 46 -71
106 -96 106 -26 -1 -152 -201 -201 -320 -31 -75 -49 -195 -50 -320 0 -123 9
-254 20 -271 3 -5 2 -14 -1 -19 -4 -6 -34 24 -68 67 -34 43 -64 80 -67 83 -3
3 -17 21 -30 40 -13 19 -27 37 -30 40 -4 3 -39 52 -79 110 l-72 104 38 31
c229 183 307 352 298 640 -2 72 -6 141 -9 155 -40 189 -49 213 -85 223 -22 5
-72 -37 -126 -107 -16 -21 -35 -44 -41 -50 -38 -40 -110 -191 -135 -286 -13
-46 -18 -257 -9 -368 4 -49 2 -65 -10 -72 -11 -7 -20 -3 -32 13 -10 12 -18 25
-18 28 0 4 -18 37 -40 73 -35 58 -210 401 -210 412 0 2 28 18 63 35 124 63
206 129 257 209 91 141 144 373 145 628 0 90 -2 105 -19 117 -17 13 -24 11
-64 -18 -65 -46 -203 -183 -250 -247 -65 -89 -106 -182 -117 -263 -3 -23 -8
-51 -10 -62 -2 -11 -4 -55 -4 -98 -1 -74 -3 -80 -32 -109 -17 -17 -34 -27 -38
-22 -14 15 -96 241 -140 384 -23 74 -45 147 -50 162 -11 33 -15 29 74 58 39
12 108 42 155 66 192 99 261 201 336 493 19 75 46 159 59 188 30 63 33 113 8
112 -10 0 -46 -11 -81 -24z"/>
<path d="M11085 7100 c-9 -14 4 -69 22 -96 15 -23 44 -117 69 -224 66 -284
173 -410 434 -512 14 -5 25 -9 25 -9 0 1 23 -8 50 -18 42 -16 50 -23 47 -43
-7 -64 -177 -558 -192 -558 -7 0 -60 49 -61 58 -1 4 -2 39 -3 77 -5 173 -39
287 -118 402 -84 122 -289 310 -323 297 -7 -3 -16 -17 -20 -32 -7 -28 -8 -198
-1 -242 2 -14 7 -50 11 -80 21 -184 100 -382 185 -468 53 -53 173 -134 228
-153 18 -6 32 -18 32 -26 0 -18 -162 -339 -227 -450 -42 -71 -51 -80 -66 -71
-17 9 -18 18 -11 96 15 163 8 282 -22 382 -33 110 -111 241 -204 343 -79 87
-123 75 -145 -38 -5 -22 -9 -42 -10 -45 -1 -3 -5 -30 -9 -60 -5 -30 -10 -64
-12 -75 -3 -11 -5 -65 -5 -120 -3 -252 54 -392 228 -560 26 -25 60 -54 76 -63
15 -9 27 -21 27 -26 0 -20 -231 -339 -310 -426 l-31 -35 6 45 c15 97 14 383
-1 452 -29 135 -87 261 -179 386 -48 65 -63 71 -104 38 -21 -16 -67 -123 -77
-176 -4 -25 -8 -47 -9 -50 -6 -21 -18 -180 -20 -243 -3 -174 95 -417 221 -547
l44 -45 -71 -78 c-39 -43 -70 -79 -68 -80 2 -2 25 -19 51 -40 l47 -37 52 55
c28 30 61 65 73 78 l21 23 95 -48 c265 -133 479 -120 805 51 158 83 192 107
205 147 17 50 -2 68 -120 109 -105 38 -280 52 -376 31 -16 -3 -38 -8 -49 -10
-101 -20 -296 -80 -381 -117 -24 -10 -44 -16 -44 -14 0 3 38 53 85 112 48 60
124 163 171 229 l84 122 58 -18 c113 -35 192 -45 352 -44 112 0 146 4 200 23
55 19 194 92 210 110 3 3 25 22 50 42 76 61 170 156 170 171 0 29 -42 52 -128
70 -192 39 -396 -1 -700 -135 l-103 -45 24 41 c73 123 149 267 202 380 l60
128 40 -7 c22 -3 49 -9 60 -11 11 -3 73 -7 137 -10 188 -8 326 35 474 149 143
110 277 282 258 331 -3 8 -30 19 -62 26 -180 36 -386 3 -512 -82 -48 -33 -169
-127 -210 -165 -26 -23 -101 -64 -107 -58 -2 2 10 39 28 82 39 99 133 382 149
452 7 28 17 55 22 58 6 4 35 8 65 10 241 13 421 88 561 232 138 143 296 426
241 433 -5 1 -15 2 -21 3 -7 1 -31 -3 -53 -10 -22 -6 -71 -15 -110 -18 -85 -9
-215 -52 -292 -97 -31 -19 -102 -79 -157 -134 -105 -104 -116 -116 -160 -181
-30 -45 -30 -45 -11 49 8 40 23 126 34 192 19 112 26 162 37 260 2 22 6 52 8
68 2 15 1 29 -3 31 -3 2 -34 7 -68 10 -61 6 -63 6 -64 -16 -1 -13 -3 -32 -4
-43 -2 -11 -6 -47 -10 -80 -10 -93 -13 -114 -19 -143 -3 -15 -8 -45 -11 -67
-10 -75 -48 -260 -56 -275 -6 -12 -9 -12 -15 5 -7 23 -87 185 -112 230 -114
202 -262 335 -454 409 -100 39 -113 42 -123 26z"/>
<path d="M3856 4426 c-17 -14 -57 -91 -119 -231 -100 -225 -179 -395 -182
-395 -10 0 -526 -195 -555 -210 -77 -40 -98 -95 -59 -160 28 -45 65 -80 217
-209 134 -112 154 -128 342 -269 162 -122 603 -412 626 -412 2 0 27 -14 56
-31 252 -150 707 -352 1029 -459 172 -57 447 -134 549 -155 8 -2 60 -12 115
-23 87 -18 121 -24 195 -38 23 -4 91 -14 135 -19 22 -3 51 -7 65 -10 14 -2 57
-7 95 -10 39 -4 77 -8 85 -10 96 -25 998 -25 1039 -1 3 2 40 7 81 10 63 6 247
32 355 51 390 69 801 190 1180 347 384 160 779 375 1130 616 138 95 419 304
445 332 3 3 32 28 65 55 33 28 73 61 90 75 16 14 62 57 101 95 54 53 72 78 76
105 7 44 -15 84 -62 112 -27 16 -310 125 -543 210 -24 9 -38 31 -83 125 -30
63 -54 116 -54 118 0 2 -17 41 -39 87 -21 45 -58 128 -82 183 -73 170 -104
176 -240 43 -170 -166 -434 -371 -689 -534 -159 -102 -478 -262 -672 -338
-275 -108 -617 -204 -853 -240 -125 -20 -165 -25 -210 -31 -27 -3 -66 -8 -85
-10 -205 -26 -651 -25 -875 1 -481 57 -878 163 -1300 349 -66 29 -314 153
-330 165 -5 4 -37 22 -70 40 -155 85 -394 252 -580 406 -101 83 -118 99 -236
209 -83 78 -116 91 -153 61z"/>
</g>
</svg>
